<?xml version="1.0" standalone="no"?>
<!DOCTYPE svg PUBLIC "-//W3C//DTD SVG 1.1//EN" "http://www.w3.org/Graphics/SVG/1.1/DTD/svg11.dtd">
<svg width="800" height="600" version="1.1" xmlns="http://www.w3.org/2000/svg">
<rect width="800" height="600" x="0" y="0" style="fill:rgb(238,238,238);stroke:none"/>
<rect width="800" height="600" x="0" y="0" style="fill:rgb(255,255,255);stroke:none"/>
<text x="2" y="566" fill="rgb(0,0,0)" font-family="Arial" font-size="12">0</text>
<text x="2" y="488" fill="rgb(0,0,0)" font-family="Arial" font-size="12">100000</text>
<text x="2" y="409" fill="rgb(0,0,0)" font-family="Arial" font-size="12">200000</text>
<text x="2" y="330" fill="rgb(0,0,0)" font-family="Arial" font-size="12">300000</text>
<text x="2" y="251" fill="rgb(0,0,0)" font-family="Arial" font-size="12">400000</text>
<text x="2" y="173" fill="rgb(0,0,0)" font-family="Arial" font-size="12">500000</text>
<text x="2" y="94" fill="rgb(0,0,0)" font-family="Arial" font-size="12">600000</text>
<text x="314" y="30" fill="rgb(0,0,0)" font-family="Arial" font-size="12">GC distribution over all sequences</text>
<line x1="53" y1="560" x2="790" y2="560" stroke="rgb(0,0,0)" stroke-width="1"/>
<line x1="53" y1="560" x2="53" y2="40" stroke="rgb(0,0,0)" stroke-width="1"/>
<text x="334" y="595" fill="rgb(0,0,0)" font-family="Arial" font-size="12">Mean GC content (%)</text>
<text x="52" y="575" fill="rgb(0,0,0)" font-family="Arial" font-size="12">0</text>
<rect width="7" height="520" x="60" y="40" style="fill:rgb(230,230,230);stroke:none"/>
<text x="66" y="575" fill="rgb(0,0,0)" font-family="Arial" font-size="12">2</text>
<rect width="7" height="520" x="74" y="40" style="fill:rgb(230,230,230);stroke:none"/>
<text x="80" y="575" fill="rgb(0,0,0)" font-family="Arial" font-size="12">4</text>
<rect width="7" height="520" x="88" y="40" style="fill:rgb(230,230,230);stroke:none"/>
<text x="94" y="575" fill="rgb(0,0,0)" font-family="Arial" font-size="12">6</text>
<rect width="7" height="520" x="102" y="40" style="fill:rgb(230,230,230);stroke:none"/>
<text x="108" y="575" fill="rgb(0,0,0)" font-family="Arial" font-size="12">8</text>
<rect width="7" height="520" x="116" y="40" style="fill:rgb(230,230,230);stroke:none"/>
<rect width="7" height="520" x="130" y="40" style="fill:rgb(230,230,230);stroke:none"/>
<text x="125" y="575" fill="rgb(0,0,0)" font-family="Arial" font-size="12">11</text>
<rect width="7" height="520" x="144" y="40" style="fill:rgb(230,230,230);stroke:none"/>
<rect width="7" height="520" x="158" y="40" style="fill:rgb(230,230,230);stroke:none"/>
<text x="153" y="575" fill="rgb(0,0,0)" font-family="Arial" font-size="12">15</text>
<rect width="7" height="520" x="172" y="40" style="fill:rgb(230,230,230);stroke:none"/>
<rect width="7" height="520" x="186" y="40" style="fill:rgb(230,230,230);stroke:none"/>
<text x="181" y="575" fill="rgb(0,0,0)" font-family="Arial" font-size="12">19</text>
<rect width="7" height="520" x="200" y="40" style="fill:rgb(230,230,230);stroke:none"/>
<rect width="7" height="520" x="214" y="40" style="fill:rgb(230,230,230);stroke:none"/>
<text x="209" y="575" fill="rgb(0,0,0)" font-family="Arial" font-size="12">23</text>
<rect width="7" height="520" x="228" y="40" style="fill:rgb(230,230,230);stroke:none"/>
<rect width="7" height="520" x="242" y="40" style="fill:rgb(230,230,230);stroke:none"/>
<text x="237" y="575" fill="rgb(0,0,0)" font-family="Arial" font-size="12">27</text>
<rect width="7" height="520" x="256" y="40" style="fill:rgb(230,230,230);stroke:none"/>
<rect width="7" height="520" x="270" y="40" style="fill:rgb(230,230,230);stroke:none"/>
<text x="265" y="575" fill="rgb(0,0,0)" font-family="Arial" font-size="12">31</text>
<rect width="7" height="520" x="284" y="40" style="fill:rgb(230,230,230);stroke:none"/>
<rect width="7" height="520" x="298" y="40" style="fill:rgb(230,230,230);stroke:none"/>
<text x="293" y="575" fill="rgb(0,0,0)" font-family="Arial" font-size="12">35</text>
<rect width="7" height="520" x="312" y="40" style="fill:rgb(230,230,230);stroke:none"/>
<rect width="7" height="520" x="326" y="40" style="fill:rgb(230,230,230);stroke:none"/>
<text x="321" y="575" fill="rgb(0,0,0)" font-family="Arial" font-size="12">39</text>
<rect width="7" height="520" x="340" y="40" style="fill:rgb(230,230,230);stroke:none"/>
<rect width="7" height="520" x="354" y="40" style="fill:rgb(230,230,230);stroke:none"/>
<text x="349" y="575" fill="rgb(0,0,0)" font-family="Arial" font-size="12">43</text>
<rect width="7" height="520" x="368" y="40" style="fill:rgb(230,230,230);stroke:none"/>
<rect width="7" height="520" x="382" y="40" style="fill:rgb(230,230,230);stroke:none"/>
<text x="377" y="575" fill="rgb(0,0,0)" font-family="Arial" font-size="12">47</text>
<rect width="7" height="520" x="396" y="40" style="fill:rgb(230,230,230);stroke:none"/>
<rect width="7" height="520" x="410" y="40" style="fill:rgb(230,230,230);stroke:none"/>
<text x="405" y="575" fill="rgb(0,0,0)" font-family="Arial" font-size="12">51</text>
<rect width="7" height="520" x="424" y="40" style="fill:rgb(230,230,230);stroke:none"/>
<rect width="7" height="520" x="438" y="40" style="fill:rgb(230,230,230);stroke:none"/>
<text x="433" y="575" fill="rgb(0,0,0)" font-family="Arial" font-size="12">55</text>
<rect width="7" height="520" x="452" y="40" style="fill:rgb(230,230,230);stroke:none"/>
<rect width="7" height="520" x="466" y="40" style="fill:rgb(230,230,230);stroke:none"/>
<text x="461" y="575" fill="rgb(0,0,0)" font-family="Arial" font-size="12">59</text>
<rect width="7" height="520" x="480" y="40" style="fill:rgb(230,230,230);stroke:none"/>
<rect width="7" height="520" x="494" y="40" style="fill:rgb(230,230,230);stroke:none"/>
<text x="489" y="575" fill="rgb(0,0,0)" font-family="Arial" font-size="12">63</text>
<rect width="7" height="520" x="508" y="40" style="fill:rgb(230,230,230);stroke:none"/>
<rect width="7" height="520" x="522" y="40" style="fill:rgb(230,230,230);stroke:none"/>
<text x="517" y="575" fill="rgb(0,0,0)" font-family="Arial" font-size="12">67</text>
<rect width="7" height="520" x="536" y="40" style="fill:rgb(230,230,230);stroke:none"/>
<rect width="7" height="520" x="550" y="40" style="fill:rgb(230,230,230);stroke:none"/>
<text x="545" y="575" fill="rgb(0,0,0)" font-family="Arial" font-size="12">71</text>
<rect width="7" height="520" x="564" y="40" style="fill:rgb(230,230,230);stroke:none"/>
<rect width="7" height="520" x="578" y="40" style="fill:rgb(230,230,230);stroke:none"/>
<text x="573" y="575" fill="rgb(0,0,0)" font-family="Arial" font-size="12">75</text>
<rect width="7" height="520" x="592" y="40" style="fill:rgb(230,230,230);stroke:none"/>
<rect width="7" height="520" x="606" y="40" style="fill:rgb(230,230,230);stroke:none"/>
<text x="601" y="575" fill="rgb(0,0,0)" font-family="Arial" font-size="12">79</text>
<rect width="7" height="520" x="620" y="40" style="fill:rgb(230,230,230);stroke:none"/>
<rect width="7" height="520" x="634" y="40" style="fill:rgb(230,230,230);stroke:none"/>
<text x="629" y="575" fill="rgb(0,0,0)" font-family="Arial" font-size="12">83</text>
<rect width="7" height="520" x="648" y="40" style="fill:rgb(230,230,230);stroke:none"/>
<rect width="7" height="520" x="662" y="40" style="fill:rgb(230,230,230);stroke:none"/>
<text x="657" y="575" fill="rgb(0,0,0)" font-family="Arial" font-size="12">87</text>
<rect width="7" height="520" x="676" y="40" style="fill:rgb(230,230,230);stroke:none"/>
<rect width="7" height="520" x="690" y="40" style="fill:rgb(230,230,230);stroke:none"/>
<text x="685" y="575" fill="rgb(0,0,0)" font-family="Arial" font-size="12">91</text>
<rect width="7" height="520" x="704" y="40" style="fill:rgb(230,230,230);stroke:none"/>
<rect width="7" height="520" x="718" y="40" style="fill:rgb(230,230,230);stroke:none"/>
<text x="713" y="575" fill="rgb(0,0,0)" font-family="Arial" font-size="12">95</text>
<rect width="7" height="520" x="732" y="40" style="fill:rgb(230,230,230);stroke:none"/>
<rect width="7" height="520" x="746" y="40" style="fill:rgb(230,230,230);stroke:none"/>
<text x="741" y="575" fill="rgb(0,0,0)" font-family="Arial" font-size="12">99</text>
<line x1="53" y1="560" x2="790" y2="560" stroke="rgb(180,180,180)" stroke-width="1"/>
<line x1="53" y1="482" x2="790" y2="482" stroke="rgb(180,180,180)" stroke-width="1"/>
<line x1="53" y1="403" x2="790" y2="403" stroke="rgb(180,180,180)" stroke-width="1"/>
<line x1="53" y1="324" x2="790" y2="324" stroke="rgb(180,180,180)" stroke-width="1"/>
<line x1="53" y1="245" x2="790" y2="245" stroke="rgb(180,180,180)" stroke-width="1"/>
<line x1="53" y1="167" x2="790" y2="167" stroke="rgb(180,180,180)" stroke-width="1"/>
<line x1="53" y1="88" x2="790" y2="88" stroke="rgb(180,180,180)" stroke-width="1"/>
<line x1="56" y1="560" x2="63" y2="560" stroke="rgb(136,34,85)" stroke-width="1"/>
<line x1="63" y1="560" x2="70" y2="560" stroke="rgb(136,34,85)" stroke-width="1"/>
<line x1="70" y1="560" x2="77" y2="560" stroke="rgb(136,34,85)" stroke-width="1"/>
<line x1="77" y1="560" x2="84" y2="560" stroke="rgb(136,34,85)" stroke-width="1"/>
<line x1="84" y1="560" x2="91" y2="560" stroke="rgb(136,34,85)" stroke-width="1"/>
<line x1="91" y1="560" x2="98" y2="560" stroke="rgb(136,34,85)" stroke-width="1"/>
<line x1="98" y1="560" x2="105" y2="560" stroke="rgb(136,34,85)" stroke-width="1"/>
<line x1="105" y1="560" x2="112" y2="560" stroke="rgb(136,34,85)" stroke-width="1"/>
<line x1="112" y1="560" x2="119" y2="560" stroke="rgb(136,34,85)" stroke-width="1"/>
<line x1="119" y1="560" x2="126" y2="560" stroke="rgb(136,34,85)" stroke-width="1"/>
<line x1="126" y1="560" x2="133" y2="560" stroke="rgb(136,34,85)" stroke-width="1"/>
<line x1="133" y1="560" x2="140" y2="560" stroke="rgb(136,34,85)" stroke-width="1"/>
<line x1="140" y1="560" x2="147" y2="560" stroke="rgb(136,34,85)" stroke-width="1"/>
<line x1="147" y1="560" x2="154" y2="560" stroke="rgb(136,34,85)" stroke-width="1"/>
<line x1="154" y1="560" x2="161" y2="560" stroke="rgb(136,34,85)" stroke-width="1"/>
<line x1="161" y1="560" x2="168" y2="560" stroke="rgb(136,34,85)" stroke-width="1"/>
<line x1="168" y1="560" x2="175" y2="560" stroke="rgb(136,34,85)" stroke-width="1"/>
<line x1="175" y1="560" x2="182" y2="559" stroke="rgb(136,34,85)" stroke-width="1"/>
<line x1="182" y1="559" x2="189" y2="559" stroke="rgb(136,34,85)" stroke-width="1"/>
<line x1="189" y1="559" x2="196" y2="558" stroke="rgb(136,34,85)" stroke-width="1"/>
<line x1="196" y1="558" x2="203" y2="557" stroke="rgb(136,34,85)" stroke-width="1"/>
<line x1="203" y1="557" x2="210" y2="555" stroke="rgb(136,34,85)" stroke-width="1"/>
<line x1="210" y1="555" x2="217" y2="553" stroke="rgb(136,34,85)" stroke-width="1"/>
<line x1="217" y1="553" x2="224" y2="550" stroke="rgb(136,34,85)" stroke-width="1"/>
<line x1="224" y1="550" x2="231" y2="545" stroke="rgb(136,34,85)" stroke-width="1"/>
<line x1="231" y1="545" x2="238" y2="540" stroke="rgb(136,34,85)" stroke-width="1"/>
<line x1="238" y1="540" x2="245" y2="534" stroke="rgb(136,34,85)" stroke-width="1"/>
<line x1="245" y1="534" x2="252" y2="526" stroke="rgb(136,34,85)" stroke-width="1"/>
<line x1="252" y1="526" x2="259" y2="514" stroke="rgb(136,34,85)" stroke-width="1"/>
<line x1="259" y1="514" x2="266" y2="500" stroke="rgb(136,34,85)" stroke-width="1"/>
<line x1="266" y1="500" x2="273" y2="484" stroke="rgb(136,34,85)" stroke-width="1"/>
<line x1="273" y1="484" x2="280" y2="467" stroke="rgb(136,34,85)" stroke-width="1"/>
<line x1="280" y1="467" x2="287" y2="448" stroke="rgb(136,34,85)" stroke-width="1"/>
<line x1="287" y1="448" x2="294" y2="423" stroke="rgb(136,34,85)" stroke-width="1"/>
<line x1="294" y1="423" x2="301" y2="396" stroke="rgb(136,34,85)" stroke-width="1"/>
<line x1="301" y1="396" x2="308" y2="369" stroke="rgb(136,34,85)" stroke-width="1"/>
<line x1="308" y1="369" x2="315" y2="340" stroke="rgb(136,34,85)" stroke-width="1"/>
<line x1="315" y1="340" x2="322" y2="312" stroke="rgb(136,34,85)" stroke-width="1"/>
<line x1="322" y1="312" x2="329" y2="286" stroke="rgb(136,34,85)" stroke-width="1"/>
<line x1="329" y1="286" x2="336" y2="259" stroke="rgb(136,34,85)" stroke-width="1"/>
<line x1="336" y1="259" x2="343" y2="237" stroke="rgb(136,34,85)" stroke-width="1"/>
<line x1="343" y1="237" x2="350" y2="221" stroke="rgb(136,34,85)" stroke-width="1"/>
<line x1="350" y1="221" x2="357" y2="196" stroke="rgb(136,34,85)" stroke-width="1"/>
<line x1="357" y1="196" x2="364" y2="165" stroke="rgb(136,34,85)" stroke-width="1"/>
<line x1="364" y1="165" x2="371" y2="141" stroke="rgb(136,34,85)" stroke-width="1"/>
<line x1="371" y1="141" x2="378" y2="121" stroke="rgb(136,34,85)" stroke-width="1"/>
<line x1="378" y1="121" x2="385" y2="97" stroke="rgb(136,34,85)" stroke-width="1"/>
<line x1="385" y1="97" x2="392" y2="71" stroke="rgb(136,34,85)" stroke-width="1"/>
<line x1="392" y1="71" x2="399" y2="58" stroke="rgb(136,34,85)" stroke-width="1"/>
<line x1="399" y1="58" x2="406" y2="57" stroke="rgb(136,34,85)" stroke-width="1"/>
<line x1="406" y1="57" x2="413" y2="48" stroke="rgb(136,34,85)" stroke-width="1"/>
<line x1="413" y1="48" x2="420" y2="40" stroke="rgb(136,34,85)" stroke-width="1"/>
<line x1="420" y1="40" x2="427" y2="45" stroke="rgb(136,34,85)" stroke-width="1"/>
<line x1="427" y1="45" x2="434" y2="48" stroke="rgb(136,34,85)" stroke-width="1"/>
<line x1="434" y1="48" x2="441" y2="57" stroke="rgb(136,34,85)" stroke-width="1"/>
<line x1="441" y1="57" x2="448" y2="80" stroke="rgb(136,34,85)" stroke-width="1"/>
<line x1="448" y1="80" x2="455" y2="112" stroke="rgb(136,34,85)" stroke-width="1"/>
<line x1="455" y1="112" x2="462" y2="140" stroke="rgb(136,34,85)" stroke-width="1"/>
<line x1="462" y1="140" x2="469" y2="173" stroke="rgb(136,34,85)" stroke-width="1"/>
<line x1="469" y1="173" x2="476" y2="211" stroke="rgb(136,34,85)" stroke-width="1"/>
<line x1="476" y1="211" x2="483" y2="245" stroke="rgb(136,34,85)" stroke-width="1"/>
<line x1="483" y1="245" x2="490" y2="286" stroke="rgb(136,34,85)" stroke-width="1"/>
<line x1="490" y1="286" x2="497" y2="335" stroke="rgb(136,34,85)" stroke-width="1"/>
<line x1="497" y1="335" x2="504" y2="376" stroke="rgb(136,34,85)" stroke-width="1"/>
<line x1="504" y1="376" x2="511" y2="412" stroke="rgb(136,34,85)" stroke-width="1"/>
<line x1="511" y1="412" x2="518" y2="449" stroke="rgb(136,34,85)" stroke-width="1"/>
<line x1="518" y1="449" x2="525" y2="475" stroke="rgb(136,34,85)" stroke-width="1"/>
<line x1="525" y1="475" x2="532" y2="488" stroke="rgb(136,34,85)" stroke-width="1"/>
<line x1="532" y1="488" x2="539" y2="498" stroke="rgb(136,34,85)" stroke-width="1"/>
<line x1="539" y1="498" x2="546" y2="505" stroke="rgb(136,34,85)" stroke-width="1"/>
<line x1="546" y1="505" x2="553" y2="509" stroke="rgb(136,34,85)" stroke-width="1"/>
<line x1="553" y1="509" x2="560" y2="511" stroke="rgb(136,34,85)" stroke-width="1"/>
<line x1="560" y1="511" x2="567" y2="513" stroke="rgb(136,34,85)" stroke-width="1"/>
<line x1="567" y1="513" x2="574" y2="523" stroke="rgb(136,34,85)" stroke-width="1"/>
<line x1="574" y1="523" x2="581" y2="532" stroke="rgb(136,34,85)" stroke-width="1"/>
<line x1="581" y1="532" x2="588" y2="534" stroke="rgb(136,34,85)" stroke-width="1"/>
<line x1="588" y1="534" x2="595" y2="536" stroke="rgb(136,34,85)" stroke-width="1"/>
<line x1="595" y1="536" x2="602" y2="542" stroke="rgb(136,34,85)" stroke-width="1"/>
<line x1="602" y1="542" x2="609" y2="546" stroke="rgb(136,34,85)" stroke-width="1"/>
<line x1="609" y1="546" x2="616" y2="547" stroke="rgb(136,34,85)" stroke-width="1"/>
<line x1="616" y1="547" x2="623" y2="546" stroke="rgb(136,34,85)" stroke-width="1"/>
<line x1="623" y1="546" x2="630" y2="548" stroke="rgb(136,34,85)" stroke-width="1"/>
<line x1="630" y1="548" x2="637" y2="547" stroke="rgb(136,34,85)" stroke-width="1"/>
<line x1="637" y1="547" x2="644" y2="549" stroke="rgb(136,34,85)" stroke-width="1"/>
<line x1="644" y1="549" x2="651" y2="553" stroke="rgb(136,34,85)" stroke-width="1"/>
<line x1="651" y1="553" x2="658" y2="555" stroke="rgb(136,34,85)" stroke-width="1"/>
<line x1="658" y1="555" x2="665" y2="556" stroke="rgb(136,34,85)" stroke-width="1"/>
<line x1="665" y1="556" x2="672" y2="558" stroke="rgb(136,34,85)" stroke-width="1"/>
<line x1="672" y1="558" x2="679" y2="560" stroke="rgb(136,34,85)" stroke-width="1"/>
<line x1="679" y1="560" x2="686" y2="560" stroke="rgb(136,34,85)" stroke-width="1"/>
<line x1="686" y1="560" x2="693" y2="560" stroke="rgb(136,34,85)" stroke-width="1"/>
<line x1="693" y1="560" x2="700" y2="560" stroke="rgb(136,34,85)" stroke-width="1"/>
<line x1="700" y1="560" x2="707" y2="560" stroke="rgb(136,34,85)" stroke-width="1"/>
<line x1="707" y1="560" x2="714" y2="560" stroke="rgb(136,34,85)" stroke-width="1"/>
<line x1="714" y1="560" x2="721" y2="560" stroke="rgb(136,34,85)" stroke-width="1"/>
<line x1="721" y1="560" x2="728" y2="560" stroke="rgb(136,34,85)" stroke-width="1"/>
<line x1="728" y1="560" x2="735" y2="560" stroke="rgb(136,34,85)" stroke-width="1"/>
<line x1="735" y1="560" x2="742" y2="560" stroke="rgb(136,34,85)" stroke-width="1"/>
<line x1="742" y1="560" x2="749" y2="560" stroke="rgb(136,34,85)" stroke-width="1"/>
<line x1="749" y1="560" x2="756" y2="560" stroke="rgb(136,34,85)" stroke-width="1"/>
<line x1="56" y1="560" x2="63" y2="560" stroke="rgb(51,34,136)" stroke-width="1"/>
<line x1="63" y1="560" x2="70" y2="560" stroke="rgb(51,34,136)" stroke-width="1"/>
<line x1="70" y1="560" x2="77" y2="560" stroke="rgb(51,34,136)" stroke-width="1"/>
<line x1="77" y1="560" x2="84" y2="560" stroke="rgb(51,34,136)" stroke-width="1"/>
<line x1="84" y1="560" x2="91" y2="560" stroke="rgb(51,34,136)" stroke-width="1"/>
<line x1="91" y1="560" x2="98" y2="560" stroke="rgb(51,34,136)" stroke-width="1"/>
<line x1="98" y1="560" x2="105" y2="560" stroke="rgb(51,34,136)" stroke-width="1"/>
<line x1="105" y1="560" x2="112" y2="560" stroke="rgb(51,34,136)" stroke-width="1"/>
<line x1="112" y1="560" x2="119" y2="560" stroke="rgb(51,34,136)" stroke-width="1"/>
<line x1="119" y1="560" x2="126" y2="560" stroke="rgb(51,34,136)" stroke-width="1"/>
<line x1="126" y1="560" x2="133" y2="560" stroke="rgb(51,34,136)" stroke-width="1"/>
<line x1="133" y1="560" x2="140" y2="560" stroke="rgb(51,34,136)" stroke-width="1"/>
<line x1="140" y1="560" x2="147" y2="560" stroke="rgb(51,34,136)" stroke-width="1"/>
<line x1="147" y1="560" x2="154" y2="560" stroke="rgb(51,34,136)" stroke-width="1"/>
<line x1="154" y1="560" x2="161" y2="560" stroke="rgb(51,34,136)" stroke-width="1"/>
<line x1="161" y1="560" x2="168" y2="560" stroke="rgb(51,34,136)" stroke-width="1"/>
<line x1="168" y1="560" x2="175" y2="559" stroke="rgb(51,34,136)" stroke-width="1"/>
<line x1="175" y1="559" x2="182" y2="559" stroke="rgb(51,34,136)" stroke-width="1"/>
<line x1="182" y1="559" x2="189" y2="558" stroke="rgb(51,34,136)" stroke-width="1"/>
<line x1="189" y1="558" x2="196" y2="557" stroke="rgb(51,34,136)" stroke-width="1"/>
<line x1="196" y1="557" x2="203" y2="556" stroke="rgb(51,34,136)" stroke-width="1"/>
<line x1="203" y1="556" x2="210" y2="554" stroke="rgb(51,34,136)" stroke-width="1"/>
<line x1="210" y1="554" x2="217" y2="552" stroke="rgb(51,34,136)" stroke-width="1"/>
<line x1="217" y1="552" x2="224" y2="549" stroke="rgb(51,34,136)" stroke-width="1"/>
<line x1="224" y1="549" x2="231" y2="546" stroke="rgb(51,34,136)" stroke-width="1"/>
<line x1="231" y1="546" x2="238" y2="541" stroke="rgb(51,34,136)" stroke-width="1"/>
<line x1="238" y1="541" x2="245" y2="536" stroke="rgb(51,34,136)" stroke-width="1"/>
<line x1="245" y1="536" x2="252" y2="530" stroke="rgb(51,34,136)" stroke-width="1"/>
<line x1="252" y1="530" x2="259" y2="522" stroke="rgb(51,34,136)" stroke-width="1"/>
<line x1="259" y1="522" x2="266" y2="512" stroke="rgb(51,34,136)" stroke-width="1"/>
<line x1="266" y1="512" x2="273" y2="501" stroke="rgb(51,34,136)" stroke-width="1"/>
<line x1="273" y1="501" x2="280" y2="488" stroke="rgb(51,34,136)" stroke-width="1"/>
<line x1="280" y1="488" x2="287" y2="473" stroke="rgb(51,34,136)" stroke-width="1"/>
<line x1="287" y1="473" x2="294" y2="455" stroke="rgb(51,34,136)" stroke-width="1"/>
<line x1="294" y1="455" x2="301" y2="436" stroke="rgb(51,34,136)" stroke-width="1"/>
<line x1="301" y1="436" x2="308" y2="414" stroke="rgb(51,34,136)" stroke-width="1"/>
<line x1="308" y1="414" x2="315" y2="391" stroke="rgb(51,34,136)" stroke-width="1"/>
<line x1="315" y1="391" x2="322" y2="365" stroke="rgb(51,34,136)" stroke-width="1"/>
<line x1="322" y1="365" x2="329" y2="338" stroke="rgb(51,34,136)" stroke-width="1"/>
<line x1="329" y1="338" x2="336" y2="309" stroke="rgb(51,34,136)" stroke-width="1"/>
<line x1="336" y1="309" x2="343" y2="279" stroke="rgb(51,34,136)" stroke-width="1"/>
<line x1="343" y1="279" x2="350" y2="249" stroke="rgb(51,34,136)" stroke-width="1"/>
<line x1="350" y1="249" x2="357" y2="219" stroke="rgb(51,34,136)" stroke-width="1"/>
<line x1="357" y1="219" x2="364" y2="189" stroke="rgb(51,34,136)" stroke-width="1"/>
<line x1="364" y1="189" x2="371" y2="161" stroke="rgb(51,34,136)" stroke-width="1"/>
<line x1="371" y1="161" x2="378" y2="136" stroke="rgb(51,34,136)" stroke-width="1"/>
<line x1="378" y1="136" x2="385" y2="112" stroke="rgb(51,34,136)" stroke-width="1"/>
<line x1="385" y1="112" x2="392" y2="92" stroke="rgb(51,34,136)" stroke-width="1"/>
<line x1="392" y1="92" x2="399" y2="76" stroke="rgb(51,34,136)" stroke-width="1"/>
<line x1="399" y1="76" x2="406" y2="64" stroke="rgb(51,34,136)" stroke-width="1"/>
<line x1="406" y1="64" x2="413" y2="57" stroke="rgb(51,34,136)" stroke-width="1"/>
<line x1="413" y1="57" x2="420" y2="54" stroke="rgb(51,34,136)" stroke-width="1"/>
<line x1="420" y1="54" x2="427" y2="57" stroke="rgb(51,34,136)" stroke-width="1"/>
<line x1="427" y1="57" x2="434" y2="64" stroke="rgb(51,34,136)" stroke-width="1"/>
<line x1="434" y1="64" x2="441" y2="76" stroke="rgb(51,34,136)" stroke-width="1"/>
<line x1="441" y1="76" x2="448" y2="92" stroke="rgb(51,34,136)" stroke-width="1"/>
<line x1="448" y1="92" x2="455" y2="112" stroke="rgb(51,34,136)" stroke-width="1"/>
<line x1="455" y1="112" x2="462" y2="136" stroke="rgb(51,34,136)" stroke-width="1"/>
<line x1="462" y1="136" x2="469" y2="161" stroke="rgb(51,34,136)" stroke-width="1"/>
<line x1="469" y1="161" x2="476" y2="189" stroke="rgb(51,34,136)" stroke-width="1"/>
<line x1="476" y1="189" x2="483" y2="219" stroke="rgb(51,34,136)" stroke-width="1"/>
<line x1="483" y1="219" x2="490" y2="249" stroke="rgb(51,34,136)" stroke-width="1"/>
<line x1="490" y1="249" x2="497" y2="279" stroke="rgb(51,34,136)" stroke-width="1"/>
<line x1="497" y1="279" x2="504" y2="309" stroke="rgb(51,34,136)" stroke-width="1"/>
<line x1="504" y1="309" x2="511" y2="338" stroke="rgb(51,34,136)" stroke-width="1"/>
<line x1="511" y1="338" x2="518" y2="365" stroke="rgb(51,34,136)" stroke-width="1"/>
<line x1="518" y1="365" x2="525" y2="391" stroke="rgb(51,34,136)" stroke-width="1"/>
<line x1="525" y1="391" x2="532" y2="414" stroke="rgb(51,34,136)" stroke-width="1"/>
<line x1="532" y1="414" x2="539" y2="436" stroke="rgb(51,34,136)" stroke-width="1"/>
<line x1="539" y1="436" x2="546" y2="455" stroke="rgb(51,34,136)" stroke-width="1"/>
<line x1="546" y1="455" x2="553" y2="473" stroke="rgb(51,34,136)" stroke-width="1"/>
<line x1="553" y1="473" x2="560" y2="488" stroke="rgb(51,34,136)" stroke-width="1"/>
<line x1="560" y1="488" x2="567" y2="501" stroke="rgb(51,34,136)" stroke-width="1"/>
<line x1="567" y1="501" x2="574" y2="512" stroke="rgb(51,34,136)" stroke-width="1"/>
<line x1="574" y1="512" x2="581" y2="522" stroke="rgb(51,34,136)" stroke-width="1"/>
<line x1="581" y1="522" x2="588" y2="530" stroke="rgb(51,34,136)" stroke-width="1"/>
<line x1="588" y1="530" x2="595" y2="536" stroke="rgb(51,34,136)" stroke-width="1"/>
<line x1="595" y1="536" x2="602" y2="541" stroke="rgb(51,34,136)" stroke-width="1"/>
<line x1="602" y1="541" x2="609" y2="546" stroke="rgb(51,34,136)" stroke-width="1"/>
<line x1="609" y1="546" x2="616" y2="549" stroke="rgb(51,34,136)" stroke-width="1"/>
<line x1="616" y1="549" x2="623" y2="552" stroke="rgb(51,34,136)" stroke-width="1"/>
<line x1="623" y1="552" x2="630" y2="554" stroke="rgb(51,34,136)" stroke-width="1"/>
<line x1="630" y1="554" x2="637" y2="556" stroke="rgb(51,34,136)" stroke-width="1"/>
<line x1="637" y1="556" x2="644" y2="557" stroke="rgb(51,34,136)" stroke-width="1"/>
<line x1="644" y1="557" x2="651" y2="558" stroke="rgb(51,34,136)" stroke-width="1"/>
<line x1="651" y1="558" x2="658" y2="559" stroke="rgb(51,34,136)" stroke-width="1"/>
<line x1="658" y1="559" x2="665" y2="559" stroke="rgb(51,34,136)" stroke-width="1"/>
<line x1="665" y1="559" x2="672" y2="560" stroke="rgb(51,34,136)" stroke-width="1"/>
<line x1="672" y1="560" x2="679" y2="560" stroke="rgb(51,34,136)" stroke-width="1"/>
<line x1="679" y1="560" x2="686" y2="560" stroke="rgb(51,34,136)" stroke-width="1"/>
<line x1="686" y1="560" x2="693" y2="560" stroke="rgb(51,34,136)" stroke-width="1"/>
<line x1="693" y1="560" x2="700" y2="560" stroke="rgb(51,34,136)" stroke-width="1"/>
<line x1="700" y1="560" x2="707" y2="560" stroke="rgb(51,34,136)" stroke-width="1"/>
<line x1="707" y1="560" x2="714" y2="560" stroke="rgb(51,34,136)" stroke-width="1"/>
<line x1="714" y1="560" x2="721" y2="560" stroke="rgb(51,34,136)" stroke-width="1"/>
<line x1="721" y1="560" x2="728" y2="560" stroke="rgb(51,34,136)" stroke-width="1"/>
<line x1="728" y1="560" x2="735" y2="560" stroke="rgb(51,34,136)" stroke-width="1"/>
<line x1="735" y1="560" x2="742" y2="560" stroke="rgb(51,34,136)" stroke-width="1"/>
<line x1="742" y1="560" x2="749" y2="560" stroke="rgb(51,34,136)" stroke-width="1"/>
<line x1="749" y1="560" x2="756" y2="560" stroke="rgb(51,34,136)" stroke-width="1"/>
<rect width="174" height="43" x="616" y="40" style="fill:rgb(255,255,255);stroke:none"/>
<rect width="174" height="43" x="616" y="40" rx="0" ry="0" style="fill:none;stroke-width:1;stroke:rgb(192,192,192)"/>
<text x="619" y="55" fill="rgb(136,34,85)" font-family="Arial" font-size="12" font-weight="bold">GC count per read</text>
<text x="619" y="75" fill="rgb(51,34,136)" font-family="Arial" font-size="12" font-weight="bold">Theoretical Distribution</text>
</svg>
