<?xml version="1.0" standalone="no"?>
<!DOCTYPE svg PUBLIC "-//W3C//DTD SVG 1.1//EN" "http://www.w3.org/Graphics/SVG/1.1/DTD/svg11.dtd">
<svg width="800" height="600" version="1.1" xmlns="http://www.w3.org/2000/svg">
<rect width="800" height="600" x="0" y="0" style="fill:rgb(238,238,238);stroke:none"/>
<rect width="800" height="600" x="0" y="0" style="fill:rgb(255,255,255);stroke:none"/>
<text x="2" y="566" fill="rgb(0,0,0)" font-family="Arial" font-size="12">0</text>
<text x="2" y="511" fill="rgb(0,0,0)" font-family="Arial" font-size="12">1000000</text>
<text x="2" y="455" fill="rgb(0,0,0)" font-family="Arial" font-size="12">2000000</text>
<text x="2" y="399" fill="rgb(0,0,0)" font-family="Arial" font-size="12">3000000</text>
<text x="2" y="343" fill="rgb(0,0,0)" font-family="Arial" font-size="12">4000000</text>
<text x="2" y="287" fill="rgb(0,0,0)" font-family="Arial" font-size="12">5000000</text>
<text x="2" y="232" fill="rgb(0,0,0)" font-family="Arial" font-size="12">6000000</text>
<text x="2" y="176" fill="rgb(0,0,0)" font-family="Arial" font-size="12">7000000</text>
<text x="2" y="120" fill="rgb(0,0,0)" font-family="Arial" font-size="12">8000000</text>
<text x="2" y="64" fill="rgb(0,0,0)" font-family="Arial" font-size="12">9000000</text>
<text x="286" y="30" fill="rgb(0,0,0)" font-family="Arial" font-size="12">Quality score distribution over all sequences</text>
<line x1="61" y1="560" x2="790" y2="560" stroke="rgb(0,0,0)" stroke-width="1"/>
<line x1="61" y1="560" x2="61" y2="40" stroke="rgb(0,0,0)" stroke-width="1"/>
<text x="281" y="595" fill="rgb(0,0,0)" font-family="Arial" font-size="12">Mean Sequence Quality (Phred Score)</text>
<text x="68" y="575" fill="rgb(0,0,0)" font-family="Arial" font-size="12">17</text>
<rect width="30" height="520" x="91" y="40" style="fill:rgb(230,230,230);stroke:none"/>
<text x="98" y="575" fill="rgb(0,0,0)" font-family="Arial" font-size="12">18</text>
<text x="128" y="575" fill="rgb(0,0,0)" font-family="Arial" font-size="12">19</text>
<rect width="30" height="520" x="151" y="40" style="fill:rgb(230,230,230);stroke:none"/>
<text x="158" y="575" fill="rgb(0,0,0)" font-family="Arial" font-size="12">20</text>
<text x="188" y="575" fill="rgb(0,0,0)" font-family="Arial" font-size="12">21</text>
<rect width="30" height="520" x="211" y="40" style="fill:rgb(230,230,230);stroke:none"/>
<text x="218" y="575" fill="rgb(0,0,0)" font-family="Arial" font-size="12">22</text>
<text x="248" y="575" fill="rgb(0,0,0)" font-family="Arial" font-size="12">23</text>
<rect width="30" height="520" x="271" y="40" style="fill:rgb(230,230,230);stroke:none"/>
<text x="278" y="575" fill="rgb(0,0,0)" font-family="Arial" font-size="12">24</text>
<text x="308" y="575" fill="rgb(0,0,0)" font-family="Arial" font-size="12">25</text>
<rect width="30" height="520" x="331" y="40" style="fill:rgb(230,230,230);stroke:none"/>
<text x="338" y="575" fill="rgb(0,0,0)" font-family="Arial" font-size="12">26</text>
<text x="368" y="575" fill="rgb(0,0,0)" font-family="Arial" font-size="12">27</text>
<rect width="30" height="520" x="391" y="40" style="fill:rgb(230,230,230);stroke:none"/>
<text x="398" y="575" fill="rgb(0,0,0)" font-family="Arial" font-size="12">28</text>
<text x="428" y="575" fill="rgb(0,0,0)" font-family="Arial" font-size="12">29</text>
<rect width="30" height="520" x="451" y="40" style="fill:rgb(230,230,230);stroke:none"/>
<text x="458" y="575" fill="rgb(0,0,0)" font-family="Arial" font-size="12">30</text>
<text x="488" y="575" fill="rgb(0,0,0)" font-family="Arial" font-size="12">31</text>
<rect width="30" height="520" x="511" y="40" style="fill:rgb(230,230,230);stroke:none"/>
<text x="518" y="575" fill="rgb(0,0,0)" font-family="Arial" font-size="12">32</text>
<text x="548" y="575" fill="rgb(0,0,0)" font-family="Arial" font-size="12">33</text>
<rect width="30" height="520" x="571" y="40" style="fill:rgb(230,230,230);stroke:none"/>
<text x="578" y="575" fill="rgb(0,0,0)" font-family="Arial" font-size="12">34</text>
<text x="608" y="575" fill="rgb(0,0,0)" font-family="Arial" font-size="12">35</text>
<rect width="30" height="520" x="631" y="40" style="fill:rgb(230,230,230);stroke:none"/>
<text x="638" y="575" fill="rgb(0,0,0)" font-family="Arial" font-size="12">36</text>
<text x="668" y="575" fill="rgb(0,0,0)" font-family="Arial" font-size="12">37</text>
<rect width="30" height="520" x="691" y="40" style="fill:rgb(230,230,230);stroke:none"/>
<text x="698" y="575" fill="rgb(0,0,0)" font-family="Arial" font-size="12">38</text>
<text x="728" y="575" fill="rgb(0,0,0)" font-family="Arial" font-size="12">39</text>
<rect width="30" height="520" x="751" y="40" style="fill:rgb(230,230,230);stroke:none"/>
<text x="758" y="575" fill="rgb(0,0,0)" font-family="Arial" font-size="12">40</text>
<line x1="61" y1="560" x2="790" y2="560" stroke="rgb(180,180,180)" stroke-width="1"/>
<line x1="61" y1="505" x2="790" y2="505" stroke="rgb(180,180,180)" stroke-width="1"/>
<line x1="61" y1="449" x2="790" y2="449" stroke="rgb(180,180,180)" stroke-width="1"/>
<line x1="61" y1="393" x2="790" y2="393" stroke="rgb(180,180,180)" stroke-width="1"/>
<line x1="61" y1="337" x2="790" y2="337" stroke="rgb(180,180,180)" stroke-width="1"/>
<line x1="61" y1="281" x2="790" y2="281" stroke="rgb(180,180,180)" stroke-width="1"/>
<line x1="61" y1="226" x2="790" y2="226" stroke="rgb(180,180,180)" stroke-width="1"/>
<line x1="61" y1="170" x2="790" y2="170" stroke="rgb(180,180,180)" stroke-width="1"/>
<line x1="61" y1="114" x2="790" y2="114" stroke="rgb(180,180,180)" stroke-width="1"/>
<line x1="61" y1="58" x2="790" y2="58" stroke="rgb(180,180,180)" stroke-width="1"/>
<line x1="76" y1="560" x2="106" y2="560" stroke="rgb(136,34,85)" stroke-width="1"/>
<line x1="106" y1="560" x2="136" y2="560" stroke="rgb(136,34,85)" stroke-width="1"/>
<line x1="136" y1="560" x2="166" y2="560" stroke="rgb(136,34,85)" stroke-width="1"/>
<line x1="166" y1="560" x2="196" y2="560" stroke="rgb(136,34,85)" stroke-width="1"/>
<line x1="196" y1="560" x2="226" y2="560" stroke="rgb(136,34,85)" stroke-width="1"/>
<line x1="226" y1="560" x2="256" y2="559" stroke="rgb(136,34,85)" stroke-width="1"/>
<line x1="256" y1="559" x2="286" y2="558" stroke="rgb(136,34,85)" stroke-width="1"/>
<line x1="286" y1="558" x2="316" y2="558" stroke="rgb(136,34,85)" stroke-width="1"/>
<line x1="316" y1="558" x2="346" y2="557" stroke="rgb(136,34,85)" stroke-width="1"/>
<line x1="346" y1="557" x2="376" y2="556" stroke="rgb(136,34,85)" stroke-width="1"/>
<line x1="376" y1="556" x2="406" y2="555" stroke="rgb(136,34,85)" stroke-width="1"/>
<line x1="406" y1="555" x2="436" y2="554" stroke="rgb(136,34,85)" stroke-width="1"/>
<line x1="436" y1="554" x2="466" y2="553" stroke="rgb(136,34,85)" stroke-width="1"/>
<line x1="466" y1="553" x2="496" y2="551" stroke="rgb(136,34,85)" stroke-width="1"/>
<line x1="496" y1="551" x2="526" y2="549" stroke="rgb(136,34,85)" stroke-width="1"/>
<line x1="526" y1="549" x2="556" y2="547" stroke="rgb(136,34,85)" stroke-width="1"/>
<line x1="556" y1="547" x2="586" y2="544" stroke="rgb(136,34,85)" stroke-width="1"/>
<line x1="586" y1="544" x2="616" y2="540" stroke="rgb(136,34,85)" stroke-width="1"/>
<line x1="616" y1="540" x2="646" y2="533" stroke="rgb(136,34,85)" stroke-width="1"/>
<line x1="646" y1="533" x2="676" y2="521" stroke="rgb(136,34,85)" stroke-width="1"/>
<line x1="676" y1="521" x2="706" y2="499" stroke="rgb(136,34,85)" stroke-width="1"/>
<line x1="706" y1="499" x2="736" y2="430" stroke="rgb(136,34,85)" stroke-width="1"/>
<line x1="736" y1="430" x2="766" y2="40" stroke="rgb(136,34,85)" stroke-width="1"/>
<rect width="183" height="23" x="607" y="40" style="fill:rgb(255,255,255);stroke:none"/>
<rect width="183" height="23" x="607" y="40" rx="0" ry="0" style="fill:none;stroke-width:1;stroke:rgb(192,192,192)"/>
<text x="610" y="55" fill="rgb(136,34,85)" font-family="Arial" font-size="12" font-weight="bold">Average Quality per read</text>
</svg>
