<?xml version="1.0" standalone="no"?>
<!DOCTYPE svg PUBLIC "-//W3C//DTD SVG 1.1//EN" "http://www.w3.org/Graphics/SVG/1.1/DTD/svg11.dtd">
<svg width="800" height="600" version="1.1" xmlns="http://www.w3.org/2000/svg">
<rect width="800" height="600" x="0" y="0" style="fill:rgb(238,238,238);stroke:none"/>
<rect width="800" height="600" x="0" y="0" style="fill:rgb(255,255,255);stroke:none"/>
<text x="2" y="566" fill="rgb(0,0,0)" font-family="Arial" font-size="12">0</text>
<text x="2" y="494" fill="rgb(0,0,0)" font-family="Arial" font-size="12">500000</text>
<text x="2" y="421" fill="rgb(0,0,0)" font-family="Arial" font-size="12">1000000</text>
<text x="2" y="348" fill="rgb(0,0,0)" font-family="Arial" font-size="12">1500000</text>
<text x="2" y="275" fill="rgb(0,0,0)" font-family="Arial" font-size="12">2000000</text>
<text x="2" y="202" fill="rgb(0,0,0)" font-family="Arial" font-size="12">2500000</text>
<text x="2" y="129" fill="rgb(0,0,0)" font-family="Arial" font-size="12">3000000</text>
<text x="2" y="56" fill="rgb(0,0,0)" font-family="Arial" font-size="12">3500000</text>
<text x="286" y="30" fill="rgb(0,0,0)" font-family="Arial" font-size="12">Quality score distribution over all sequences</text>
<line x1="61" y1="560" x2="790" y2="560" stroke="rgb(0,0,0)" stroke-width="1"/>
<line x1="61" y1="560" x2="61" y2="40" stroke="rgb(0,0,0)" stroke-width="1"/>
<text x="281" y="595" fill="rgb(0,0,0)" font-family="Arial" font-size="12">Mean Sequence Quality (Phred Score)</text>
<text x="65" y="575" fill="rgb(0,0,0)" font-family="Arial" font-size="12">12</text>
<rect width="25" height="520" x="86" y="40" style="fill:rgb(230,230,230);stroke:none"/>
<text x="90" y="575" fill="rgb(0,0,0)" font-family="Arial" font-size="12">13</text>
<text x="115" y="575" fill="rgb(0,0,0)" font-family="Arial" font-size="12">14</text>
<rect width="25" height="520" x="136" y="40" style="fill:rgb(230,230,230);stroke:none"/>
<text x="140" y="575" fill="rgb(0,0,0)" font-family="Arial" font-size="12">15</text>
<text x="165" y="575" fill="rgb(0,0,0)" font-family="Arial" font-size="12">16</text>
<rect width="25" height="520" x="186" y="40" style="fill:rgb(230,230,230);stroke:none"/>
<text x="190" y="575" fill="rgb(0,0,0)" font-family="Arial" font-size="12">17</text>
<text x="215" y="575" fill="rgb(0,0,0)" font-family="Arial" font-size="12">18</text>
<rect width="25" height="520" x="236" y="40" style="fill:rgb(230,230,230);stroke:none"/>
<text x="240" y="575" fill="rgb(0,0,0)" font-family="Arial" font-size="12">19</text>
<text x="265" y="575" fill="rgb(0,0,0)" font-family="Arial" font-size="12">20</text>
<rect width="25" height="520" x="286" y="40" style="fill:rgb(230,230,230);stroke:none"/>
<text x="290" y="575" fill="rgb(0,0,0)" font-family="Arial" font-size="12">21</text>
<text x="315" y="575" fill="rgb(0,0,0)" font-family="Arial" font-size="12">22</text>
<rect width="25" height="520" x="336" y="40" style="fill:rgb(230,230,230);stroke:none"/>
<text x="340" y="575" fill="rgb(0,0,0)" font-family="Arial" font-size="12">23</text>
<text x="365" y="575" fill="rgb(0,0,0)" font-family="Arial" font-size="12">24</text>
<rect width="25" height="520" x="386" y="40" style="fill:rgb(230,230,230);stroke:none"/>
<text x="390" y="575" fill="rgb(0,0,0)" font-family="Arial" font-size="12">25</text>
<text x="415" y="575" fill="rgb(0,0,0)" font-family="Arial" font-size="12">26</text>
<rect width="25" height="520" x="436" y="40" style="fill:rgb(230,230,230);stroke:none"/>
<text x="440" y="575" fill="rgb(0,0,0)" font-family="Arial" font-size="12">27</text>
<text x="465" y="575" fill="rgb(0,0,0)" font-family="Arial" font-size="12">28</text>
<rect width="25" height="520" x="486" y="40" style="fill:rgb(230,230,230);stroke:none"/>
<text x="490" y="575" fill="rgb(0,0,0)" font-family="Arial" font-size="12">29</text>
<text x="515" y="575" fill="rgb(0,0,0)" font-family="Arial" font-size="12">30</text>
<rect width="25" height="520" x="536" y="40" style="fill:rgb(230,230,230);stroke:none"/>
<text x="540" y="575" fill="rgb(0,0,0)" font-family="Arial" font-size="12">31</text>
<text x="565" y="575" fill="rgb(0,0,0)" font-family="Arial" font-size="12">32</text>
<rect width="25" height="520" x="586" y="40" style="fill:rgb(230,230,230);stroke:none"/>
<text x="590" y="575" fill="rgb(0,0,0)" font-family="Arial" font-size="12">33</text>
<text x="615" y="575" fill="rgb(0,0,0)" font-family="Arial" font-size="12">34</text>
<rect width="25" height="520" x="636" y="40" style="fill:rgb(230,230,230);stroke:none"/>
<text x="640" y="575" fill="rgb(0,0,0)" font-family="Arial" font-size="12">35</text>
<text x="665" y="575" fill="rgb(0,0,0)" font-family="Arial" font-size="12">36</text>
<rect width="25" height="520" x="686" y="40" style="fill:rgb(230,230,230);stroke:none"/>
<text x="690" y="575" fill="rgb(0,0,0)" font-family="Arial" font-size="12">37</text>
<text x="715" y="575" fill="rgb(0,0,0)" font-family="Arial" font-size="12">38</text>
<rect width="25" height="520" x="736" y="40" style="fill:rgb(230,230,230);stroke:none"/>
<text x="740" y="575" fill="rgb(0,0,0)" font-family="Arial" font-size="12">39</text>
<text x="765" y="575" fill="rgb(0,0,0)" font-family="Arial" font-size="12">40</text>
<line x1="61" y1="560" x2="790" y2="560" stroke="rgb(180,180,180)" stroke-width="1"/>
<line x1="61" y1="488" x2="790" y2="488" stroke="rgb(180,180,180)" stroke-width="1"/>
<line x1="61" y1="415" x2="790" y2="415" stroke="rgb(180,180,180)" stroke-width="1"/>
<line x1="61" y1="342" x2="790" y2="342" stroke="rgb(180,180,180)" stroke-width="1"/>
<line x1="61" y1="269" x2="790" y2="269" stroke="rgb(180,180,180)" stroke-width="1"/>
<line x1="61" y1="196" x2="790" y2="196" stroke="rgb(180,180,180)" stroke-width="1"/>
<line x1="61" y1="123" x2="790" y2="123" stroke="rgb(180,180,180)" stroke-width="1"/>
<line x1="61" y1="50" x2="790" y2="50" stroke="rgb(180,180,180)" stroke-width="1"/>
<line x1="73" y1="560" x2="98" y2="560" stroke="rgb(136,34,85)" stroke-width="1"/>
<line x1="98" y1="560" x2="123" y2="560" stroke="rgb(136,34,85)" stroke-width="1"/>
<line x1="123" y1="560" x2="148" y2="560" stroke="rgb(136,34,85)" stroke-width="1"/>
<line x1="148" y1="560" x2="173" y2="560" stroke="rgb(136,34,85)" stroke-width="1"/>
<line x1="173" y1="560" x2="198" y2="560" stroke="rgb(136,34,85)" stroke-width="1"/>
<line x1="198" y1="560" x2="223" y2="560" stroke="rgb(136,34,85)" stroke-width="1"/>
<line x1="223" y1="560" x2="248" y2="560" stroke="rgb(136,34,85)" stroke-width="1"/>
<line x1="248" y1="560" x2="273" y2="560" stroke="rgb(136,34,85)" stroke-width="1"/>
<line x1="273" y1="560" x2="298" y2="560" stroke="rgb(136,34,85)" stroke-width="1"/>
<line x1="298" y1="560" x2="323" y2="560" stroke="rgb(136,34,85)" stroke-width="1"/>
<line x1="323" y1="560" x2="348" y2="560" stroke="rgb(136,34,85)" stroke-width="1"/>
<line x1="348" y1="560" x2="373" y2="560" stroke="rgb(136,34,85)" stroke-width="1"/>
<line x1="373" y1="560" x2="398" y2="559" stroke="rgb(136,34,85)" stroke-width="1"/>
<line x1="398" y1="559" x2="423" y2="559" stroke="rgb(136,34,85)" stroke-width="1"/>
<line x1="423" y1="559" x2="448" y2="558" stroke="rgb(136,34,85)" stroke-width="1"/>
<line x1="448" y1="558" x2="473" y2="557" stroke="rgb(136,34,85)" stroke-width="1"/>
<line x1="473" y1="557" x2="498" y2="556" stroke="rgb(136,34,85)" stroke-width="1"/>
<line x1="498" y1="556" x2="523" y2="555" stroke="rgb(136,34,85)" stroke-width="1"/>
<line x1="523" y1="555" x2="548" y2="553" stroke="rgb(136,34,85)" stroke-width="1"/>
<line x1="548" y1="553" x2="573" y2="551" stroke="rgb(136,34,85)" stroke-width="1"/>
<line x1="573" y1="551" x2="598" y2="549" stroke="rgb(136,34,85)" stroke-width="1"/>
<line x1="598" y1="549" x2="623" y2="547" stroke="rgb(136,34,85)" stroke-width="1"/>
<line x1="623" y1="547" x2="648" y2="544" stroke="rgb(136,34,85)" stroke-width="1"/>
<line x1="648" y1="544" x2="673" y2="540" stroke="rgb(136,34,85)" stroke-width="1"/>
<line x1="673" y1="540" x2="698" y2="533" stroke="rgb(136,34,85)" stroke-width="1"/>
<line x1="698" y1="533" x2="723" y2="520" stroke="rgb(136,34,85)" stroke-width="1"/>
<line x1="723" y1="520" x2="748" y2="478" stroke="rgb(136,34,85)" stroke-width="1"/>
<line x1="748" y1="478" x2="773" y2="40" stroke="rgb(136,34,85)" stroke-width="1"/>
<rect width="183" height="23" x="607" y="40" style="fill:rgb(255,255,255);stroke:none"/>
<rect width="183" height="23" x="607" y="40" rx="0" ry="0" style="fill:none;stroke-width:1;stroke:rgb(192,192,192)"/>
<text x="610" y="55" fill="rgb(136,34,85)" font-family="Arial" font-size="12" font-weight="bold">Average Quality per read</text>
</svg>
